<svg xmlns="http://www.w3.org/2000/svg" width="900" height="900" viewBox="0 0 900 900" role="img" aria-label="Solusi Website">
  <defs>
    <linearGradient id="bg" x1="0" x2="1" y1="0" y2="1"><stop offset="0" stop-color="#eff6ff"/><stop offset="1" stop-color="#dbeafe"/></linearGradient>
    <linearGradient id="card" x1="0" x2="1" y1="0" y2="1"><stop offset="0" stop-color="#ffffff"/><stop offset="1" stop-color="#f8fafc"/></linearGradient>
    <filter id="shadow" x="-20%" y="-20%" width="140%" height="140%"><feDropShadow dx="0" dy="26" stdDeviation="22" flood-color="#0f172a" flood-opacity="0.16"/></filter>
  </defs>
  <rect width="900" height="900" rx="42" fill="url(#bg)"/>
  <circle cx="720" cy="160" r="180" fill="#0f766e" opacity="0.12"/>
  <circle cx="160" cy="760" r="170" fill="#38bdf8" opacity="0.15"/>
  <g filter="url(#shadow)" transform="translate(150 170)">
    <rect width="600" height="430" rx="36" fill="url(#card)"/>
    <rect x="38" y="44" width="172" height="22" rx="11" fill="#0f766e" opacity="0.20"/>
    <rect x="38" y="98" width="430" height="18" rx="9" fill="#94a3b8" opacity="0.35"/>
    <rect x="38" y="132" width="370" height="18" rx="9" fill="#94a3b8" opacity="0.25"/>
    <rect x="38" y="198" width="150" height="118" rx="24" fill="#0f766e" opacity="0.16"/>
    <rect x="224" y="198" width="150" height="118" rx="24" fill="#0ea5e9" opacity="0.15"/>
    <rect x="410" y="198" width="150" height="118" rx="24" fill="#22c55e" opacity="0.13"/>
    <path d="M64 356h470" stroke="#e2e8f0" stroke-width="8" stroke-linecap="round"/>
  </g>
  <text x="90" y="720" font-family="Inter, Arial, sans-serif" font-size="46" font-weight="800" fill="#0f172a" letter-spacing="-1.8">Solusi Website</text>
  <text x="90" y="772" font-family="Inter, Arial, sans-serif" font-size="22" font-weight="600" fill="#475569">Company profile, SEO, CMS</text>
</svg>